<svg width="120.99999999999999" height="120.99999999999999" xmlns="http://www.w3.org/2000/svg" fill="none">
 <defs>
  <clipPath id="a">
   <path id="svg_1" d="m48,47l24,0l0,26l-24,0l0,-26z" fill="#fff"/>
  </clipPath>
 </defs>
 <g>
  <title>Layer 1</title>
  <path id="svg_3" d="m105.086,62.221l7.911,4.463l-0.118,0.953l-8.759,2.372l0.183,-1.476l7.083,-1.83l-0.062,0.5l-6.418,-3.53l0.18,-1.452zm1.398,1.89l1.191,0.148l-0.548,4.418l-1.191,-0.148l0.548,-4.418zm-3.894,10.877l8.803,0.83l-0.542,1.242l-6.759,-0.683l0.144,-0.33l5.118,4.445l-0.384,0.88l-6.739,-0.728l0.144,-0.33l5.098,4.49l-0.542,1.242l-6.596,-5.888l0.384,-0.88l6.733,0.712l-0.144,0.33l-5.102,-4.452l0.384,-0.88zm-5.932,11.376l4.213,8.047l-0.617,0.735l-8.64,-2.77l0.956,-1.14l6.94,2.314l-0.324,0.386l-3.469,-6.45l0.941,-1.122zm0.146,2.347l0.92,0.771l-2.863,3.41l-0.919,-0.771l2.862,-3.41zm-6.081,9.013l0.678,0.917l-1.709,1.262c-0.34,0.252 -0.54,0.533 -0.599,0.845c-0.06,0.323 0.027,0.642 0.26,0.957c0.209,0.283 0.478,0.452 0.807,0.508c0.33,0.055 0.665,-0.044 1.005,-0.295l1.719,-1.27l0.713,0.966l-1.767,1.304c-0.424,0.314 -0.862,0.503 -1.312,0.567c-0.445,0.07 -0.864,0.022 -1.257,-0.146a2.29,2.29 0 0 1 -1.004,-0.795c-0.29,-0.392 -0.452,-0.8 -0.486,-1.222c-0.04,-0.418 0.042,-0.827 0.245,-1.225c0.202,-0.399 0.516,-0.755 0.941,-1.069l1.766,-1.304zm-1.355,-3.43l4.991,6.756l-1.11,0.82l-4.99,-6.756l1.11,-0.82l-0.001,0zm-3.706,2.738l4.532,1.187l-0.755,1.14l-5.177,-1.294l1.4,-1.033zm-6.372,3.724l0.487,1.162l-2.036,0.852c-0.532,0.223 -0.949,0.532 -1.251,0.927c-0.31,0.399 -0.491,0.848 -0.543,1.346c-0.056,0.509 0.03,1.033 0.255,1.572c0.222,0.531 0.532,0.952 0.931,1.262c0.399,0.31 0.849,0.495 1.35,0.554c0.495,0.061 1.004,-0.017 1.528,-0.236l2.037,-0.853l0.486,1.162l-2.07,0.867a4.37,4.37 0 0 1 -1.686,0.354a3.988,3.988 0 0 1 -1.593,-0.295a3.96,3.96 0 0 1 -1.356,-0.877a4.163,4.163 0 0 1 -0.938,-1.403a4.212,4.212 0 0 1 -0.34,-1.652a4.172,4.172 0 0 1 0.31,-1.587c0.21,-0.496 0.512,-0.943 0.908,-1.343c0.4,-0.393 0.876,-0.705 1.43,-0.937l2.092,-0.875l-0.001,0zm0.875,-0.366l3.244,7.748l-1.273,0.533l-3.244,-7.749l1.273,-0.532zm-21.122,4.749l1.972,8.619l-1.35,-0.126l-1.47,-6.632l0.36,0.034l-2.618,6.252l-0.956,-0.088l-1.421,-6.628l0.358,0.033l-2.665,6.249l-1.35,-0.126l3.525,-8.109l0.955,0.089l1.435,6.617l-0.358,-0.033l2.627,-6.24l0.956,0.089zm-12.063,-2.009l-2.623,7.98l-1.311,-0.431l2.623,-7.98l1.31,0.431l0.001,0zm-6.33,-2.363l-4.084,7.34l-0.838,-0.467l0.403,-1.588l3.314,-5.956l1.206,0.671l-0.001,0zm-5.085,-2.83l1.202,8.18l-1.04,1.523l-1.201,-8.18l1.04,-1.523l-0.001,0zm0,0l-0.35,1.494l-3.367,6.05l-1.206,-0.671l4.084,-7.34l0.84,0.467l-0.001,0zm-4.367,-3.219l-5.765,6.109l-0.698,-0.658l0.782,-1.44l4.677,-4.959l1.004,0.948zm-4.233,-3.995l-0.848,8.225l-1.382,1.221l0.848,-8.225l1.382,-1.22l0,-0.001zm0,0l-0.708,1.362l-4.751,5.037l-1.004,-0.948l5.765,-6.11l0.698,0.66l0,-0.001zm-2.705,-3.333l-6.794,4.941l-0.811,-1.116l6.793,-4.941l0.811,1.116l0.001,0zm-3.748,-5.59l-7.596,3.586l-0.41,-0.868l1.253,-1.056l6.163,-2.91l0.59,1.247l0,0.001zm-2.485,-5.263l-3.79,7.349l-1.731,0.632l3.789,-7.35l1.732,-0.631zm0,0l-1.156,1.01l-6.26,2.956l-0.59,-1.248l7.596,-3.586l0.41,0.868zm-2.124,-8.149a4.027,4.027 0 0 1 -0.043,1.665a4.242,4.242 0 0 1 -0.673,1.486a4.605,4.605 0 0 1 -1.198,1.14a4.426,4.426 0 0 1 -1.608,0.618c-0.591,0.105 -1.161,0.098 -1.711,-0.023a4.453,4.453 0 0 1 -1.507,-0.657a4.095,4.095 0 0 1 -1.15,-1.184a4.317,4.317 0 0 1 -0.632,-1.619a4.445,4.445 0 0 1 0.053,-1.886a3.855,3.855 0 0 1 0.824,-1.598l1.086,0.756c-0.303,0.306 -0.509,0.68 -0.616,1.122a3.168,3.168 0 0 0 -0.047,1.374c0.101,0.567 0.317,1.045 0.646,1.433c0.32,0.381 0.722,0.65 1.205,0.808c0.483,0.158 1.017,0.184 1.6,0.08c0.582,-0.105 1.077,-0.315 1.483,-0.631c0.398,-0.323 0.686,-0.712 0.864,-1.167c0.18,-0.454 0.222,-0.942 0.13,-1.461c-0.1,-0.552 -0.282,-1.006 -0.55,-1.365a2.148,2.148 0 0 0 -1.062,-0.76c-0.44,-0.142 -0.951,-0.16 -1.534,-0.056l0.462,-0.96l0.632,3.532l-1.24,0.222l-0.731,-4.087l0.189,-0.034c0.984,-0.176 1.835,-0.145 2.552,0.092c0.715,0.23 1.289,0.619 1.72,1.167c0.431,0.549 0.717,1.213 0.856,1.993zm0.346,-19.1l-1.208,-0.357l0.625,-2.118c0.164,-0.552 0.188,-1.07 0.072,-1.555a2.585,2.585 0 0 0 -0.7,-1.271c-0.36,-0.365 -0.82,-0.63 -1.38,-0.796c-0.552,-0.163 -1.074,-0.188 -1.566,-0.075c-0.493,0.113 -0.92,0.346 -1.283,0.697c-0.36,0.344 -0.62,0.789 -0.781,1.334l-0.626,2.117l-1.209,-0.357l0.636,-2.152a4.367,4.367 0 0 1 0.79,-1.53c0.348,-0.44 0.76,-0.79 1.237,-1.05c0.471,-0.269 0.983,-0.435 1.536,-0.497a4.16,4.16 0 0 1 1.68,0.159a4.216,4.216 0 0 1 1.496,0.78c0.43,0.352 0.774,0.767 1.034,1.244c0.251,0.475 0.407,0.992 0.467,1.552a4.482,4.482 0 0 1 -0.177,1.7l-0.643,2.175zm-0.269,0.909l-8.055,-2.381l0.39,-1.323l8.056,2.38l-0.39,1.324l-0.001,0zm3.49,-9.982l-7.263,-4.22l0.693,-1.192l7.264,4.219l-0.693,1.193l-0.001,0zm0.477,-0.82l-1.09,-0.633l2.363,-4.067l1.09,0.633l-2.363,4.067zm-3.186,-1.85l-1.048,-0.609l2.158,-3.715l1.048,0.61l-2.158,3.714zm-2.988,-1.736l-1.09,-0.633l2.333,-4.016l1.09,0.633l-2.333,4.016zm13.258,-6.221c-0.446,0.491 -0.915,0.827 -1.404,1.01c-0.49,0.18 -1.03,0.252 -1.621,0.212l-0.063,-1.323c0.405,0.055 0.786,0.028 1.143,-0.08c0.352,-0.112 0.694,-0.352 1.028,-0.719c0.312,-0.343 0.489,-0.68 0.53,-1.01a0.91,0.91 0 0 0 -0.303,-0.844c-0.207,-0.188 -0.425,-0.288 -0.652,-0.3a1.606,1.606 0 0 0 -0.707,0.135c-0.245,0.09 -0.497,0.213 -0.756,0.367c-0.259,0.143 -0.527,0.283 -0.804,0.42c-0.277,0.127 -0.561,0.22 -0.853,0.279a1.978,1.978 0 0 1 -0.886,-0.044c-0.303,-0.081 -0.615,-0.268 -0.935,-0.558c-0.367,-0.334 -0.597,-0.706 -0.69,-1.115a2.355,2.355 0 0 1 0.076,-1.277c0.144,-0.432 0.388,-0.837 0.732,-1.216c0.372,-0.408 0.783,-0.7 1.233,-0.874c0.456,-0.18 0.9,-0.257 1.331,-0.232l0.063,1.322a2.449,2.449 0 0 0 -0.952,0.155a1.866,1.866 0 0 0 -0.749,0.52c-0.28,0.308 -0.439,0.607 -0.476,0.897a0.824,0.824 0 0 0 0.29,0.734c0.19,0.172 0.391,0.26 0.607,0.26c0.21,-0.004 0.433,-0.054 0.672,-0.15c0.239,-0.108 0.487,-0.233 0.747,-0.376c0.265,-0.148 0.536,-0.285 0.813,-0.412c0.282,-0.132 0.573,-0.22 0.871,-0.262c0.298,-0.053 0.604,-0.034 0.92,0.059c0.316,0.092 0.64,0.29 0.971,0.59c0.556,0.507 0.817,1.106 0.782,1.799c-0.03,0.686 -0.35,1.364 -0.958,2.033zm4.135,-4.121l-5.21,-6.589l1.083,-0.856l5.21,6.59l-1.083,0.855zm8.048,-5.219a4.028,4.028 0 0 1 -1.607,0.44a4.243,4.243 0 0 1 -1.617,-0.213a4.606,4.606 0 0 1 -1.438,-0.817a4.425,4.425 0 0 1 -1.057,-1.36a4.335,4.335 0 0 1 -0.473,-1.645a4.451,4.451 0 0 1 0.192,-1.632a4.095,4.095 0 0 1 0.8,-1.445c0.37,-0.439 0.825,-0.796 1.366,-1.072a4.445,4.445 0 0 1 1.822,-0.496a3.855,3.855 0 0 1 1.768,0.326l-0.41,1.258a2.356,2.356 0 0 0 -1.252,-0.264c-0.458,0.017 -0.9,0.135 -1.329,0.353c-0.513,0.26 -0.908,0.605 -1.184,1.033c-0.272,0.417 -0.414,0.88 -0.424,1.388c-0.011,0.508 0.118,1.026 0.386,1.553c0.269,0.528 0.614,0.94 1.034,1.238c0.425,0.287 0.88,0.45 1.367,0.49c0.487,0.039 0.965,-0.061 1.436,-0.3c0.5,-0.255 0.881,-0.562 1.147,-0.921c0.27,-0.37 0.41,-0.783 0.42,-1.238c0.008,-0.461 -0.122,-0.956 -0.39,-1.484l1.052,0.165l-3.197,1.627l-0.572,-1.123l3.7,-1.883l0.087,0.171c0.454,0.891 0.67,1.714 0.651,2.47c-0.012,0.75 -0.219,1.412 -0.619,1.984c-0.4,0.572 -0.953,1.037 -1.659,1.397zm8.521,-3.627l-1.73,-8.22l0.938,-0.197l0.738,1.463l1.405,6.67l-1.35,0.284l-0.001,0zm5.695,-1.2l-6.273,-5.386l-0.213,-1.831l6.272,5.387l0.214,1.83zm0,0l-0.715,-1.357l-1.427,-6.775l1.35,-0.285l1.732,8.22l-0.94,0.198l0,-0.001zm16.94,0.933c-0.648,-0.147 -1.171,-0.389 -1.57,-0.725a3.864,3.864 0 0 1 -0.985,-1.306l1.12,-0.706c0.152,0.379 0.363,0.697 0.633,0.955c0.271,0.25 0.649,0.43 1.132,0.54c0.453,0.102 0.833,0.09 1.14,-0.037a0.91,0.91 0 0 0 0.585,-0.68c0.062,-0.273 0.042,-0.511 -0.06,-0.714a1.604,1.604 0 0 0 -0.465,-0.55c-0.2,-0.167 -0.43,-0.326 -0.692,-0.476c-0.252,-0.155 -0.506,-0.32 -0.762,-0.492a3.93,3.93 0 0 1 -0.663,-0.606a1.977,1.977 0 0 1 -0.399,-0.792c-0.078,-0.304 -0.07,-0.668 0.026,-1.089c0.11,-0.484 0.32,-0.867 0.63,-1.15c0.319,-0.288 0.702,-0.476 1.148,-0.563c0.447,-0.088 0.92,-0.075 1.419,0.038c0.538,0.122 0.994,0.336 1.368,0.642c0.381,0.308 0.667,0.656 0.858,1.044l-1.12,0.706a2.448,2.448 0 0 0 -0.604,-0.752c-0.22,-0.19 -0.493,-0.321 -0.821,-0.395c-0.406,-0.092 -0.744,-0.083 -1.015,0.028a0.824,0.824 0 0 0 -0.496,0.614c-0.057,0.25 -0.033,0.468 0.073,0.656c0.106,0.18 0.26,0.35 0.462,0.51c0.211,0.155 0.443,0.31 0.694,0.466c0.26,0.157 0.513,0.325 0.76,0.504c0.254,0.18 0.473,0.39 0.657,0.629c0.194,0.232 0.328,0.509 0.403,0.83c0.075,0.32 0.063,0.698 -0.036,1.135c-0.166,0.734 -0.56,1.256 -1.18,1.566c-0.612,0.313 -1.359,0.37 -2.24,0.17zm7.345,2.276l3.429,-7.404l1.252,0.58l-3.429,7.404l-1.252,-0.58zm0.517,-7.629l0.53,-1.143l6.218,2.88l-0.53,1.143l-6.218,-2.881l0,0.001zm10.078,14.196a3.372,3.372 0 0 1 -1.063,-1.4a3.254,3.254 0 0 1 -0.206,-1.668c0.089,-0.573 0.33,-1.107 0.724,-1.602l3.245,-4.073l1.08,0.86l-3.238,4.064c-0.255,0.319 -0.41,0.65 -0.469,0.992c-0.046,0.341 -0.007,0.67 0.12,0.986c0.132,0.31 0.342,0.579 0.63,0.808c0.294,0.234 0.604,0.379 0.928,0.433c0.33,0.048 0.653,0.008 0.97,-0.118c0.32,-0.133 0.605,-0.356 0.854,-0.67l3.245,-4.073l1.08,0.86l-3.253,4.083c-0.394,0.494 -0.858,0.846 -1.392,1.054a3.19,3.19 0 0 1 -1.653,0.187c-0.567,-0.084 -1.101,-0.325 -1.602,-0.724l0,0.001zm6.216,5.883l1.003,-0.763l1.338,1.757c0.349,0.458 0.752,0.784 1.212,0.977c0.463,0.2 0.943,0.262 1.439,0.187c0.506,-0.075 0.992,-0.288 1.457,-0.642c0.458,-0.35 0.787,-0.756 0.987,-1.22c0.199,-0.463 0.265,-0.945 0.196,-1.446c-0.065,-0.494 -0.269,-0.967 -0.613,-1.418l-1.338,-1.757l1.003,-0.764l1.359,1.786c0.368,0.484 0.624,0.998 0.767,1.542c0.15,0.54 0.188,1.079 0.115,1.617c-0.061,0.54 -0.23,1.05 -0.507,1.533c-0.27,0.477 -0.644,0.897 -1.121,1.26a4.218,4.218 0 0 1 -1.514,0.746a4.176,4.176 0 0 1 -1.614,0.098a4.24,4.24 0 0 1 -1.528,-0.54a4.481,4.481 0 0 1 -1.267,-1.148l-1.374,-1.805zm-0.574,-0.754l6.683,-5.089l0.836,1.098l-6.683,5.09l-0.836,-1.099zm5.778,8.505l7.514,-3.754l0.617,1.234l-7.514,3.755l-0.617,-1.235zm3.512,9.111a4.219,4.219 0 0 1 -0.108,-1.71c0.082,-0.56 0.262,-1.08 0.54,-1.56c0.285,-0.482 0.65,-0.898 1.095,-1.248a4.417,4.417 0 0 1 1.551,-0.75a4.336,4.336 0 0 1 1.707,-0.12c0.56,0.082 1.079,0.258 1.557,0.528c0.487,0.276 0.901,0.633 1.242,1.072c0.351,0.445 0.603,0.957 0.758,1.536c0.155,0.58 0.19,1.146 0.106,1.699a4.109,4.109 0 0 1 -0.54,1.56c-0.278,0.48 -0.644,0.892 -1.099,1.237a4.19,4.19 0 0 1 -1.536,0.758a4.286,4.286 0 0 1 -1.721,0.111a4.174,4.174 0 0 1 -1.557,-0.528a4.212,4.212 0 0 1 -1.243,-1.072a4.098,4.098 0 0 1 -0.752,-1.513zm1.27,-0.364c0.146,0.55 0.398,0.995 0.754,1.339a2.67,2.67 0 0 0 1.281,0.701c0.504,0.122 1.042,0.107 1.614,-0.046a3.21,3.21 0 0 0 1.104,-0.518c0.321,-0.226 0.575,-0.497 0.764,-0.812c0.197,-0.318 0.32,-0.665 0.368,-1.042c0.05,-0.37 0.021,-0.76 -0.088,-1.169c-0.145,-0.541 -0.396,-0.987 -0.755,-1.339a2.693,2.693 0 0 0 -1.269,-0.704c-0.494,-0.117 -1.028,-0.099 -1.6,0.054a3.572,3.572 0 0 0 -1.13,0.513a2.926,2.926 0 0 0 -0.764,0.813a2.803,2.803 0 0 0 -0.368,1.042c-0.048,0.377 -0.019,0.766 0.089,1.168z" fill="#444"/>
  <g id="svg_4" clip-path="url(#a)">
   <path id="svg_5" d="m60.686,73c0.914,-6.3 5.371,-12.255 11.314,-12.255l0,-1.49c-5.943,0 -10.4,-5.84 -11.314,-12.255l-1.486,0c-0.8,6.414 -5.371,12.255 -11.2,12.255l0,1.49c5.829,0 10.4,5.955 11.2,12.255l1.486,0z" fill="#996830"/>
  </g>
 </g>
</svg>