<svg xmlns="http://www.w3.org/2000/svg" width="99" height="100" fill="none"><path stroke="#fff" stroke-linecap="round" stroke-linejoin="round" stroke-width="1.5" d="M55.666 43.333 42.333 56.667M43.667 43.333h12v12"/><path fill="#fff" d="M82.575 62.683c.202-.54.498-1.01.888-1.41.39-.401.835-.712 1.337-.934a4.605 4.605 0 0 1 1.613-.37c.57-.016 1.136.081 1.698.292.561.21 1.048.509 1.459.893.408.393.728.838.96 1.335.237.508.365 1.043.385 1.605a4.318 4.318 0 0 1-.284 1.714 4.443 4.443 0 0 1-1.01 1.595c-.438.442-.946.76-1.523.953l-.548-1.205a2.355 2.355 0 0 0 1.103-.65c.326-.322.573-.708.742-1.157.202-.54.26-1.06.176-1.562a2.586 2.586 0 0 0-.624-1.31c-.335-.382-.78-.677-1.334-.885-.554-.208-1.087-.28-1.598-.216a2.814 2.814 0 0 0-1.339.562c-.386.3-.671.697-.857 1.19-.196.525-.271 1.01-.225 1.455.052.455.227.853.525 1.196.306.346.737.623 1.291.83l-.888.59 1.26-3.36 1.18.444-1.458 3.887-.18-.068c-.936-.35-1.652-.812-2.147-1.382-.498-.563-.793-1.19-.883-1.882-.091-.692.003-1.409.281-2.15ZM80.087 68.427l6.829 4.892-.804 1.121-6.828-4.891.803-1.122Zm-.552.77 1.024.734-2.739 3.825-1.024-.734 2.74-3.824Zm2.995 2.146.985.706-2.501 3.492-.986-.705 2.502-3.493Zm2.81 2.013 1.024.733-2.704 3.776-1.025-.734 2.705-3.775ZM73.735 76.18l5.425 6.095-1.03.917-5.426-6.095 1.031-.918Zm6.79 3.514.838.941-5.118 4.556-.838-.942 5.119-4.555ZM64.874 82.34l3.474 7.648-1.257.57-3.473-7.648 1.256-.57ZM60.289 84.364l1.856 8.192-.936.212-.76-1.452-1.506-6.648 1.346-.304Zm-5.677 1.286 6.355 5.29.242 1.828-6.355-5.29-.242-1.828Zm0 0 .736 1.346 1.53 6.753-1.346.305-1.856-8.192.936-.212ZM44.597 85.754l-1.251 8.063-1.364-.212 1.252-8.063 1.363.212Zm1.609 7.475-.194 1.245-6.77-1.051.193-1.245 6.77 1.05ZM34.425 82.797c.549.242 1.016.57 1.402.985.385.415.678.88.879 1.397.197.524.293 1.07.289 1.635a4.425 4.425 0 0 1-.386 1.68 4.335 4.335 0 0 1-.974 1.406 4.45 4.45 0 0 1-1.386.884 4.127 4.127 0 0 1-1.614.299 4.2 4.2 0 0 1-1.672-.37 4.115 4.115 0 0 1-1.391-.98 4.094 4.094 0 0 1-.88-1.397 4.154 4.154 0 0 1-.278-1.63 4.203 4.203 0 0 1 .37-1.674c.242-.549.572-1.02.99-1.413.407-.388.87-.683 1.386-.884a4.206 4.206 0 0 1 1.614-.298c.559.001 1.109.121 1.65.36Zm-.51 1.218c-.52-.23-1.026-.312-1.517-.25-.499.06-.948.248-1.348.56-.411.318-.736.748-.975 1.29a3.203 3.203 0 0 0-.286 1.184c-.024.392.028.76.156 1.105.124.352.319.665.583.939.257.27.579.491.967.662.512.226 1.018.309 1.516.249a2.693 2.693 0 0 0 1.344-.55c.4-.312.72-.74.958-1.282a3.57 3.57 0 0 0 .307-1.202 2.92 2.92 0 0 0-.156-1.105 2.803 2.803 0 0 0-.583-.938 3.012 3.012 0 0 0-.967-.663ZM25.735 77.316c.482.41.82.888 1.018 1.434.197.546.247 1.104.15 1.673a3.374 3.374 0 0 1-.775 1.578l-3.377 3.965-1.05-.895 3.369-3.956c.264-.31.43-.636.5-.976.058-.34.029-.67-.088-.99a2.06 2.06 0 0 0-.602-.828 2.017 2.017 0 0 0-.914-.463 1.844 1.844 0 0 0-.972.087 2.148 2.148 0 0 0-.877.64L18.74 82.55l-1.05-.895 3.384-3.974c.41-.48.885-.817 1.426-1.008a3.19 3.19 0 0 1 1.658-.133c.564.103 1.09.361 1.577.776ZM18.82 69.45c.347.5.58 1.024.699 1.575.108.548.11 1.091.008 1.63a4.255 4.255 0 0 1-.628 1.517c-.315.472-.719.88-1.211 1.221a4.484 4.484 0 0 1-1.558.702c-.552.13-1.1.15-1.64.058a4.243 4.243 0 0 1-1.526-.577c-.48-.3-.894-.699-1.24-1.198-.389-.559-.632-1.106-.731-1.64a4.43 4.43 0 0 1-.004-1.605l1.303.235c-.082.359-.083.73-.002 1.112.076.376.248.757.517 1.145.238.342.514.613.828.813.315.2.656.328 1.026.384.358.053.727.03 1.107-.068a3.47 3.47 0 0 0 1.112-.524 3.47 3.47 0 0 0 .88-.859 2.9 2.9 0 0 0 .46-1.02c.07-.361.067-.724-.011-1.089a2.923 2.923 0 0 0-.473-1.06c-.292-.42-.601-.731-.927-.934a2.7 2.7 0 0 0-1.052-.38l.235-1.302a4.21 4.21 0 0 1 1.532.587c.48.3.913.725 1.296 1.277ZM16.215 65.261l-7.908 2.833-.465-1.3 7.908-2.832.465 1.3Zm-1.8-5.027-7.908 2.833-.466-1.3 7.908-2.832.466 1.3Zm-2.021 5.39-1.187.424-1.582-4.417 1.186-.425 1.583 4.417ZM9.856 49.499a1.246 1.246 0 0 1-.624 1.116c-.2.104-.416.156-.648.156-.232 0-.444-.052-.636-.156a1.246 1.246 0 0 1-.456-.456 1.22 1.22 0 0 1-.18-.66c0-.248.06-.464.18-.648.112-.192.264-.34.456-.444a1.24 1.24 0 0 1 .636-.168c.232 0 .448.056.648.168a1.222 1.222 0 0 1 .624 1.092ZM15.264 37.748a4.026 4.026 0 0 1-.872 1.42 4.241 4.241 0 0 1-1.326.95 4.606 4.606 0 0 1-1.609.386 4.423 4.423 0 0 1-1.7-.272 4.336 4.336 0 0 1-1.47-.877 4.452 4.452 0 0 1-.975-1.323 4.095 4.095 0 0 1-.403-1.601 4.317 4.317 0 0 1 .265-1.717c.226-.624.557-1.16.99-1.606.435-.447.94-.77 1.514-.97l.561 1.198c-.415.113-.78.334-1.095.663a3.168 3.168 0 0 0-.729 1.165c-.196.542-.249 1.063-.158 1.564.086.49.298.925.638 1.303.34.378.787.668 1.344.87.556.202 1.09.268 1.6.197.506-.08.95-.272 1.333-.576.382-.304.663-.704.843-1.2.19-.527.26-1.013.209-1.457a2.147 2.147 0 0 0-.539-1.19c-.31-.343-.743-.614-1.3-.816l.882-.6-1.223 3.373-1.185-.429 1.415-3.903.18.065c.94.34 1.662.793 2.163 1.358.504.557.806 1.181.904 1.872.099.691.013 1.409-.257 2.154ZM17.643 32.013l-6.882-4.816.791-1.131 6.882 4.816-.79 1.13Zm.544-.777-1.033-.722 2.698-3.854 1.032.722-2.697 3.854Zm-3.019-2.112-.993-.695 2.464-3.52.993.695-2.464 3.52Zm-2.831-1.982-1.032-.722 2.662-3.805 1.033.723-2.663 3.804ZM23.96 24.105l-5.47-6.056 1.025-.925 5.47 6.056-1.025.925Zm-6.816-3.465-.845-.935 5.086-4.593.844.935-5.085 4.593ZM32.798 17.82l-3.53-7.623 1.253-.58 3.53 7.622-1.253.58ZM37.221 15.79l-1.95-8.17.934-.223.777 1.443 1.582 6.63-1.343.32Zm5.661-1.35-6.414-5.218-.263-1.825 6.415 5.218.262 1.825Zm0 0-.75-1.339-1.608-6.735 1.342-.32 1.95 8.17-.934.224ZM52.886 14.184l1.16-8.078 1.365.196-1.159 8.078-1.366-.196Zm-1.694-7.457.179-1.247 6.783.973-.18 1.248-6.782-.974ZM63.167 17.024a4.2 4.2 0 0 1-1.409-.974 4.347 4.347 0 0 1-.89-1.39 4.496 4.496 0 0 1-.3-1.634c.01-.57.135-1.131.373-1.682.237-.55.558-1.022.963-1.414a4.451 4.451 0 0 1 1.38-.894 4.201 4.201 0 0 1 3.287.047c.55.237 1.016.56 1.397.97.392.404.689.867.89 1.39.205.515.301 1.058.29 1.628 0 .566-.12 1.125-.357 1.676a4.29 4.29 0 0 1-.98 1.42c-.404.392-.864.69-1.379.894a4.207 4.207 0 0 1-1.611.311 4.085 4.085 0 0 1-1.654-.348Zm.502-1.221c.521.225 1.027.304 1.518.237a2.669 2.669 0 0 0 1.344-.57c.408-.32.73-.752.965-1.296.174-.403.266-.8.277-1.187a2.673 2.673 0 0 0-.164-1.103 2.576 2.576 0 0 0-.59-.935 2.955 2.955 0 0 0-.972-.655c-.514-.222-1.02-.3-1.518-.237-.488.06-.934.246-1.34.559-.398.316-.714.746-.949 1.29a3.573 3.573 0 0 0-.297 1.204c-.014.395.04.763.164 1.103.13.344.327.656.59.935.266.271.59.49.971.655ZM71.903 22.38a3.372 3.372 0 0 1-1.033-1.423 3.255 3.255 0 0 1-.17-1.672c.102-.572.355-1.1.76-1.586l3.333-4.001 1.06.883-3.326 3.992c-.26.314-.424.641-.49.982-.054.34-.02.67.099.988.125.312.329.586.612.822.289.24.595.392.919.453.328.055.652.023.97-.097.324-.126.614-.343.87-.65l3.333-4.002 1.06.883-3.34 4.011c-.405.486-.876.827-1.415 1.024a3.19 3.19 0 0 1-1.656.15c-.566-.095-1.094-.348-1.586-.758ZM78.979 30.247a4.367 4.367 0 0 1-.71-1.57 4.242 4.242 0 0 1-.02-1.63c.105-.544.31-1.051.616-1.521a4.575 4.575 0 0 1 1.203-1.23 4.481 4.481 0 0 1 1.552-.713 4.09 4.09 0 0 1 1.64-.07 4.242 4.242 0 0 1 1.53.565c.482.296.899.693 1.25 1.19.391.555.639 1.1.741 1.635a4.43 4.43 0 0 1 .016 1.604l-1.304-.225c.079-.36.077-.73-.006-1.112-.079-.376-.254-.756-.526-1.142a2.926 2.926 0 0 0-.834-.807 2.603 2.603 0 0 0-1.029-.376 2.766 2.766 0 0 0-1.106.076c-.38.101-.749.278-1.108.532-.36.254-.65.542-.873.865a2.898 2.898 0 0 0-.453 1.024c-.068.362-.062.724.019 1.088.08.364.24.717.48 1.056.296.419.607.728.934.928a2.7 2.7 0 0 0 1.055.372l-.226 1.304a4.208 4.208 0 0 1-1.536-.575c-.483-.296-.918-.718-1.305-1.268ZM81.646 34.43l7.887-2.892.475 1.296-7.887 2.892-.475-1.296Zm1.839 5.014 7.886-2.892.475 1.296-7.886 2.892-.475-1.296Zm1.98-5.404 1.183-.434 1.615 4.405-1.182.434-1.616-4.405ZM88.147 49.882a1.246 1.246 0 0 1 .607-1.126c.198-.106.413-.162.645-.165.232-.004.445.045.638.146.194.109.348.258.463.449.123.19.187.409.19.657a1.16 1.16 0 0 1-.17.65 1.158 1.158 0 0 1-.449.451c-.19.115-.401.175-.633.178a1.304 1.304 0 0 1-.65-.158 1.22 1.22 0 0 1-.64-1.082Z"/></svg>